<mxfile host="app.diagrams.net" modified="2024-05-16T21:04:54.023Z" agent="Mozilla/5.0 (Windows NT 10.0; Win64; x64) AppleWebKit/537.36 (KHTML, like Gecko) Chrome/124.0.0.0 Safari/537.36" etag="CHwWXJKcyGYqoFXlmD03" version="24.4.3" type="device">
  <diagram name="Pagina-1" id="QMbBPEFxshU9AOQJG7Jn">
    <mxGraphModel dx="1290" dy="556" grid="1" gridSize="10" guides="1" tooltips="1" connect="1" arrows="1" fold="1" page="1" pageScale="1" pageWidth="827" pageHeight="1169" math="0" shadow="0">
      <root>
        <mxCell id="0" />
        <mxCell id="1" parent="0" />
        <mxCell id="deQKDIumI5_GzSjwK9UW-1" value="&lt;span style=&quot;text-wrap: nowrap;&quot;&gt;AddNewImageToAlbum&lt;/span&gt;" style="shape=umlLifeline;perimeter=lifelinePerimeter;whiteSpace=wrap;html=1;container=0;dropTarget=0;collapsible=0;recursiveResize=0;outlineConnect=0;portConstraint=eastwest;newEdgeStyle={&quot;edgeStyle&quot;:&quot;elbowEdgeStyle&quot;,&quot;elbow&quot;:&quot;vertical&quot;,&quot;curved&quot;:0,&quot;rounded&quot;:0};" parent="1" vertex="1">
          <mxGeometry x="105" y="59" width="155" height="321" as="geometry" />
        </mxCell>
        <mxCell id="deQKDIumI5_GzSjwK9UW-2" value="" style="html=1;points=[];perimeter=orthogonalPerimeter;outlineConnect=0;targetShapes=umlLifeline;portConstraint=eastwest;newEdgeStyle={&quot;edgeStyle&quot;:&quot;elbowEdgeStyle&quot;,&quot;elbow&quot;:&quot;vertical&quot;,&quot;curved&quot;:0,&quot;rounded&quot;:0};" parent="deQKDIumI5_GzSjwK9UW-1" vertex="1">
          <mxGeometry x="72.5" y="70" width="10" height="240" as="geometry" />
        </mxCell>
        <mxCell id="deQKDIumI5_GzSjwK9UW-3" value="ImageDAO" style="shape=umlLifeline;perimeter=lifelinePerimeter;whiteSpace=wrap;html=1;container=0;dropTarget=0;collapsible=0;recursiveResize=0;outlineConnect=0;portConstraint=eastwest;newEdgeStyle={&quot;edgeStyle&quot;:&quot;elbowEdgeStyle&quot;,&quot;elbow&quot;:&quot;vertical&quot;,&quot;curved&quot;:0,&quot;rounded&quot;:0};" parent="1" vertex="1">
          <mxGeometry x="480" y="59" width="100" height="321" as="geometry" />
        </mxCell>
        <mxCell id="deQKDIumI5_GzSjwK9UW-4" value="" style="html=1;points=[];perimeter=orthogonalPerimeter;outlineConnect=0;targetShapes=umlLifeline;portConstraint=eastwest;newEdgeStyle={&quot;edgeStyle&quot;:&quot;elbowEdgeStyle&quot;,&quot;elbow&quot;:&quot;vertical&quot;,&quot;curved&quot;:0,&quot;rounded&quot;:0};" parent="deQKDIumI5_GzSjwK9UW-3" vertex="1">
          <mxGeometry x="45" y="225" width="10" height="60" as="geometry" />
        </mxCell>
        <mxCell id="deQKDIumI5_GzSjwK9UW-5" value="DoPOST" style="html=1;verticalAlign=bottom;startArrow=circle;startFill=1;endArrow=open;startSize=6;endSize=8;curved=0;rounded=0;" parent="1" edge="1">
          <mxGeometry width="80" relative="1" as="geometry">
            <mxPoint x="97" y="149" as="sourcePoint" />
            <mxPoint x="177" y="149" as="targetPoint" />
            <mxPoint as="offset" />
          </mxGeometry>
        </mxCell>
        <mxCell id="deQKDIumI5_GzSjwK9UW-6" value="" style="endArrow=classic;html=1;rounded=0;exitX=1.02;exitY=0.085;exitDx=0;exitDy=0;exitPerimeter=0;" parent="1" edge="1">
          <mxGeometry width="50" height="50" relative="1" as="geometry">
            <mxPoint x="189.99999999999986" y="300.00000000000006" as="sourcePoint" />
            <mxPoint x="520" y="300.5" as="targetPoint" />
          </mxGeometry>
        </mxCell>
        <mxCell id="deQKDIumI5_GzSjwK9UW-7" value="GoToHomePage" style="shape=umlLifeline;perimeter=lifelinePerimeter;whiteSpace=wrap;html=1;container=0;dropTarget=0;collapsible=0;recursiveResize=0;outlineConnect=0;portConstraint=eastwest;newEdgeStyle={&quot;edgeStyle&quot;:&quot;elbowEdgeStyle&quot;,&quot;elbow&quot;:&quot;vertical&quot;,&quot;curved&quot;:0,&quot;rounded&quot;:0};" parent="1" vertex="1">
          <mxGeometry x="700" y="59" width="119" height="321" as="geometry" />
        </mxCell>
        <mxCell id="deQKDIumI5_GzSjwK9UW-8" value="" style="html=1;points=[];perimeter=orthogonalPerimeter;outlineConnect=0;targetShapes=umlLifeline;portConstraint=eastwest;newEdgeStyle={&quot;edgeStyle&quot;:&quot;elbowEdgeStyle&quot;,&quot;elbow&quot;:&quot;vertical&quot;,&quot;curved&quot;:0,&quot;rounded&quot;:0};" parent="deQKDIumI5_GzSjwK9UW-7" vertex="1">
          <mxGeometry x="54" y="280" width="10" height="40" as="geometry" />
        </mxCell>
        <mxCell id="deQKDIumI5_GzSjwK9UW-9" value="AddNewImageToAlbum" style="text;html=1;align=center;verticalAlign=middle;resizable=0;points=[];autosize=1;strokeColor=none;fillColor=none;" parent="1" vertex="1">
          <mxGeometry x="25" y="20" width="150" height="30" as="geometry" />
        </mxCell>
        <mxCell id="deQKDIumI5_GzSjwK9UW-10" value="Post&lt;div&gt;/AddNewImageToAlbum&lt;/div&gt;&lt;div&gt;albumId&lt;/div&gt;&lt;div&gt;title&lt;/div&gt;&lt;div&gt;description&lt;/div&gt;&lt;div&gt;&lt;br&gt;&lt;/div&gt;&lt;div&gt;From: Home.html&lt;/div&gt;&lt;div&gt;&lt;br&gt;&lt;/div&gt;" style="text;html=1;align=center;verticalAlign=middle;resizable=0;points=[];autosize=1;strokeColor=none;fillColor=none;" parent="1" vertex="1">
          <mxGeometry x="25" y="160" width="150" height="130" as="geometry" />
        </mxCell>
        <mxCell id="deQKDIumI5_GzSjwK9UW-11" value="&lt;font style=&quot;font-size: 10px;&quot;&gt;new ImagDAO()&lt;/font&gt;" style="text;html=1;align=center;verticalAlign=middle;resizable=0;points=[];autosize=1;strokeColor=none;fillColor=none;" parent="1" vertex="1">
          <mxGeometry x="400" y="272" width="100" height="30" as="geometry" />
        </mxCell>
        <mxCell id="deQKDIumI5_GzSjwK9UW-12" value="" style="endArrow=classic;html=1;rounded=0;" parent="1" edge="1">
          <mxGeometry width="50" height="50" relative="1" as="geometry">
            <mxPoint x="190" y="335" as="sourcePoint" />
            <mxPoint x="524.5" y="335" as="targetPoint" />
          </mxGeometry>
        </mxCell>
        <mxCell id="deQKDIumI5_GzSjwK9UW-13" value="&lt;span style=&quot;font-size: 10px;&quot;&gt;addNewImageToAlbum(title, description, outpath, albumId)&lt;/span&gt;" style="text;html=1;align=center;verticalAlign=middle;resizable=0;points=[];autosize=1;strokeColor=none;fillColor=none;" parent="1" vertex="1">
          <mxGeometry x="200" y="312" width="280" height="30" as="geometry" />
        </mxCell>
        <mxCell id="deQKDIumI5_GzSjwK9UW-14" value="" style="endArrow=classic;html=1;rounded=0;" parent="1" edge="1">
          <mxGeometry width="50" height="50" relative="1" as="geometry">
            <mxPoint x="190" y="360" as="sourcePoint" />
            <mxPoint x="754" y="360" as="targetPoint" />
          </mxGeometry>
        </mxCell>
        <mxCell id="deQKDIumI5_GzSjwK9UW-15" value="redirect" style="text;html=1;align=center;verticalAlign=middle;resizable=0;points=[];autosize=1;strokeColor=none;fillColor=none;" parent="1" vertex="1">
          <mxGeometry x="220" y="337" width="60" height="30" as="geometry" />
        </mxCell>
        <mxCell id="Yi-yU5dDdNlaFvXEPZNH-1" value="ErrorHandler" style="shape=umlLifeline;perimeter=lifelinePerimeter;whiteSpace=wrap;html=1;container=0;dropTarget=0;collapsible=0;recursiveResize=0;outlineConnect=0;portConstraint=eastwest;newEdgeStyle={&quot;edgeStyle&quot;:&quot;elbowEdgeStyle&quot;,&quot;elbow&quot;:&quot;vertical&quot;,&quot;curved&quot;:0,&quot;rounded&quot;:0};" vertex="1" parent="1">
          <mxGeometry x="590" y="59" width="100" height="321" as="geometry" />
        </mxCell>
        <mxCell id="Yi-yU5dDdNlaFvXEPZNH-2" value="" style="html=1;points=[];perimeter=orthogonalPerimeter;outlineConnect=0;targetShapes=umlLifeline;portConstraint=eastwest;newEdgeStyle={&quot;edgeStyle&quot;:&quot;elbowEdgeStyle&quot;,&quot;elbow&quot;:&quot;vertical&quot;,&quot;curved&quot;:0,&quot;rounded&quot;:0};" vertex="1" parent="Yi-yU5dDdNlaFvXEPZNH-1">
          <mxGeometry x="45" y="100" width="10" height="194" as="geometry" />
        </mxCell>
        <mxCell id="Yi-yU5dDdNlaFvXEPZNH-16" value="AlbumDAO" style="shape=umlLifeline;perimeter=lifelinePerimeter;whiteSpace=wrap;html=1;container=0;dropTarget=0;collapsible=0;recursiveResize=0;outlineConnect=0;portConstraint=eastwest;newEdgeStyle={&quot;edgeStyle&quot;:&quot;elbowEdgeStyle&quot;,&quot;elbow&quot;:&quot;vertical&quot;,&quot;curved&quot;:0,&quot;rounded&quot;:0};" vertex="1" parent="1">
          <mxGeometry x="327" y="59" width="100" height="321" as="geometry" />
        </mxCell>
        <mxCell id="Yi-yU5dDdNlaFvXEPZNH-17" value="" style="html=1;points=[];perimeter=orthogonalPerimeter;outlineConnect=0;targetShapes=umlLifeline;portConstraint=eastwest;newEdgeStyle={&quot;edgeStyle&quot;:&quot;elbowEdgeStyle&quot;,&quot;elbow&quot;:&quot;vertical&quot;,&quot;curved&quot;:0,&quot;rounded&quot;:0};" vertex="1" parent="Yi-yU5dDdNlaFvXEPZNH-16">
          <mxGeometry x="45" y="67" width="10" height="103" as="geometry" />
        </mxCell>
        <mxCell id="Yi-yU5dDdNlaFvXEPZNH-18" value="" style="endArrow=classic;html=1;rounded=0;exitX=0.025;exitY=1.03;exitDx=0;exitDy=0;exitPerimeter=0;" edge="1" parent="1">
          <mxGeometry width="50" height="50" relative="1" as="geometry">
            <mxPoint x="188" y="139.99999999999997" as="sourcePoint" />
            <mxPoint x="368" y="141" as="targetPoint" />
          </mxGeometry>
        </mxCell>
        <mxCell id="Yi-yU5dDdNlaFvXEPZNH-19" value="" style="endArrow=classic;html=1;rounded=0;exitX=0.025;exitY=1.03;exitDx=0;exitDy=0;exitPerimeter=0;" edge="1" parent="1">
          <mxGeometry width="50" height="50" relative="1" as="geometry">
            <mxPoint x="189" y="163.99999999999997" as="sourcePoint" />
            <mxPoint x="372" y="164" as="targetPoint" />
          </mxGeometry>
        </mxCell>
        <mxCell id="Yi-yU5dDdNlaFvXEPZNH-20" value="" style="endArrow=classic;html=1;rounded=0;exitX=0.025;exitY=1.03;exitDx=0;exitDy=0;exitPerimeter=0;" edge="1" parent="1">
          <mxGeometry width="50" height="50" relative="1" as="geometry">
            <mxPoint x="188" y="201.99999999999997" as="sourcePoint" />
            <mxPoint x="372" y="202" as="targetPoint" />
          </mxGeometry>
        </mxCell>
        <mxCell id="Yi-yU5dDdNlaFvXEPZNH-21" value="&lt;font style=&quot;font-size: 10px;&quot;&gt;new&amp;nbsp; AlbumDAO()&lt;/font&gt;" style="text;html=1;align=center;verticalAlign=middle;resizable=0;points=[];autosize=1;strokeColor=none;fillColor=none;" vertex="1" parent="1">
          <mxGeometry x="198" y="120" width="100" height="30" as="geometry" />
        </mxCell>
        <mxCell id="Yi-yU5dDdNlaFvXEPZNH-22" value="&lt;span style=&quot;font-size: 10px;&quot;&gt;findAlbumById(albumId)&lt;/span&gt;" style="text;html=1;align=center;verticalAlign=middle;resizable=0;points=[];autosize=1;strokeColor=none;fillColor=none;" vertex="1" parent="1">
          <mxGeometry x="216" y="140" width="130" height="30" as="geometry" />
        </mxCell>
        <mxCell id="Yi-yU5dDdNlaFvXEPZNH-23" value="album" style="html=1;verticalAlign=bottom;endArrow=open;dashed=1;endSize=8;edgeStyle=elbowEdgeStyle;elbow=vertical;curved=0;rounded=0;" edge="1" parent="1">
          <mxGeometry x="0.4591" relative="1" as="geometry">
            <mxPoint x="188" y="183" as="targetPoint" />
            <Array as="points">
              <mxPoint x="318" y="183" />
            </Array>
            <mxPoint x="372" y="183" as="sourcePoint" />
            <mxPoint as="offset" />
          </mxGeometry>
        </mxCell>
        <mxCell id="Yi-yU5dDdNlaFvXEPZNH-24" value="&lt;span style=&quot;font-size: 10px;&quot;&gt;getUserByAlbumId(abumId)&lt;/span&gt;" style="text;html=1;align=center;verticalAlign=middle;resizable=0;points=[];autosize=1;strokeColor=none;fillColor=none;" vertex="1" parent="1">
          <mxGeometry x="203" y="179" width="150" height="30" as="geometry" />
        </mxCell>
        <mxCell id="Yi-yU5dDdNlaFvXEPZNH-25" value="" style="endArrow=classic;html=1;rounded=0;" edge="1" parent="1">
          <mxGeometry width="50" height="50" relative="1" as="geometry">
            <mxPoint x="188" y="264" as="sourcePoint" />
            <mxPoint x="635" y="264" as="targetPoint" />
          </mxGeometry>
        </mxCell>
        <mxCell id="Yi-yU5dDdNlaFvXEPZNH-26" value="&lt;span style=&quot;font-size: 10px;&quot;&gt;[album===null || userId!=user.getId()] displayError(request, response, &quot;error string&quot;&lt;/span&gt;" style="text;html=1;align=center;verticalAlign=middle;resizable=0;points=[];autosize=1;strokeColor=none;fillColor=none;" vertex="1" parent="1">
          <mxGeometry x="200" y="235.5" width="390" height="30" as="geometry" />
        </mxCell>
        <mxCell id="Yi-yU5dDdNlaFvXEPZNH-27" value="userId" style="html=1;verticalAlign=bottom;endArrow=open;dashed=1;endSize=8;edgeStyle=elbowEdgeStyle;elbow=vertical;curved=0;rounded=0;" edge="1" parent="1">
          <mxGeometry x="0.4591" relative="1" as="geometry">
            <mxPoint x="187" y="221" as="targetPoint" />
            <Array as="points">
              <mxPoint x="317" y="221" />
            </Array>
            <mxPoint x="371" y="221" as="sourcePoint" />
            <mxPoint as="offset" />
          </mxGeometry>
        </mxCell>
      </root>
    </mxGraphModel>
  </diagram>
</mxfile>
